<svg viewBox="-23 -24.5 46 36.5" xmlns="http://www.w3.org/2000/svg">
  <!-- Cama: iso monocromo neutro (el juego lo tiñe por sala). Borrador para refinar a mano.
       Anclaje centro-base. Generado por gen_assets.mjs. -->
  <path d="M-22.1 -6.63 L5.1 6.97 L5.1 11.05 L-22.1 -2.55 Z" fill="rgb(95,95,95)" stroke="#000000" stroke-width="1" stroke-linejoin="round"/>
  <path d="M22.1 -1.53 L5.1 6.97 L5.1 11.05 L22.1 2.55 Z" fill="rgb(60,60,60)" stroke="#000000" stroke-width="1" stroke-linejoin="round"/>
  <path d="M-5.1 -15.13 L22.1 -1.53 L5.1 6.97 L-22.1 -6.63 Z" fill="rgb(95,95,95)" stroke="#000000" stroke-width="1" stroke-linejoin="round"/>
  <path d="M-22.1 -12.75 L5.1 0.85 L5.1 6.97 L-22.1 -6.63 Z" fill="rgb(209,209,209)" stroke="#000000" stroke-width="1" stroke-linejoin="round"/>
  <path d="M22.1 -7.65 L5.1 0.85 L5.1 6.97 L22.1 -1.53 Z" fill="rgb(158,158,158)" stroke="#000000" stroke-width="1" stroke-linejoin="round"/>
  <path d="M-5.1 -21.25 L22.1 -7.65 L5.1 0.85 L-22.1 -12.75 Z" fill="#ffffff" stroke="#000000" stroke-width="1" stroke-linejoin="round"/>
  <path d="M-19.38 -8.33 L2.38 2.55 L2.38 5.12 L-19.38 -5.76 Z" fill="rgb(120,120,120)" stroke="#000000" stroke-width="0.5" stroke-linejoin="round"/>
  <path d="M-20.06 -16.49 L-10.54 -11.73 L-10.54 -8.33 L-20.06 -13.09 Z" fill="rgb(225,225,225)" stroke="#000000" stroke-width="1" stroke-linejoin="round"/>
  <path d="M3.74 -18.87 L-10.54 -11.73 L-10.54 -8.33 L3.74 -15.47 Z" fill="rgb(120,120,120)" stroke="#000000" stroke-width="1" stroke-linejoin="round"/>
  <path d="M-5.78 -23.63 L3.74 -18.87 L-10.54 -11.73 L-20.06 -16.49 Z" fill="#ffffff" stroke="#000000" stroke-width="1" stroke-linejoin="round"/>
</svg>
