<svg viewBox="-25 -27 50 40" xmlns="http://www.w3.org/2000/svg">
  <!-- Cama: iso monocromo neutro (el juego lo tiñe por sala). Borrador para refinar a mano.
       Anclaje centro-base. Generado por gen_assets.mjs. -->
  <path d="M-24.14 -8.33 L3.06 5.27 L3.06 12.07 L-24.14 -1.53 Z" fill="rgb(95,95,95)" stroke="#000000" stroke-width="1" stroke-linejoin="round"/>
  <path d="M24.14 -5.27 L3.06 5.27 L3.06 12.07 L24.14 1.53 Z" fill="rgb(60,60,60)" stroke="#000000" stroke-width="1" stroke-linejoin="round"/>
  <path d="M-3.06 -18.87 L24.14 -5.27 L3.06 5.27 L-24.14 -8.33 Z" fill="rgb(95,95,95)" stroke="#000000" stroke-width="1" stroke-linejoin="round"/>
  <path d="M-24.14 -13.09 L3.06 0.51 L3.06 5.27 L-24.14 -8.33 Z" fill="rgb(209,209,209)" stroke="#000000" stroke-width="1" stroke-linejoin="round"/>
  <path d="M24.14 -10.03 L3.06 0.51 L3.06 5.27 L24.14 -5.27 Z" fill="rgb(158,158,158)" stroke="#000000" stroke-width="1" stroke-linejoin="round"/>
  <path d="M-3.06 -23.63 L24.14 -10.03 L3.06 0.51 L-24.14 -13.09 Z" fill="#ffffff" stroke="#000000" stroke-width="1" stroke-linejoin="round"/>
  <path d="M-21.42 -9.11 L0.34 1.77 L0.34 3.53 L-21.42 -7.35 Z" fill="rgb(120,120,120)" stroke="#000000" stroke-width="0.5" stroke-linejoin="round"/>
  <path d="M-22.1 -16.83 L-12.58 -12.07 L-12.58 -8.67 L-22.1 -13.43 Z" fill="rgb(225,225,225)" stroke="#000000" stroke-width="1" stroke-linejoin="round"/>
  <path d="M5.78 -21.25 L-12.58 -12.07 L-12.58 -8.67 L5.78 -17.85 Z" fill="rgb(120,120,120)" stroke="#000000" stroke-width="1" stroke-linejoin="round"/>
  <path d="M-3.74 -26.01 L5.78 -21.25 L-12.58 -12.07 L-22.1 -16.83 Z" fill="#ffffff" stroke="#000000" stroke-width="1" stroke-linejoin="round"/>
</svg>
