<svg viewBox="-11.5 -24 23 30" xmlns="http://www.w3.org/2000/svg">
  <!-- Bidón: iso monocromo neutro (el juego lo tiñe por sala). Borrador para refinar a mano.
       Anclaje centro-base. Generado por gen_assets.mjs. -->
  <path d="M-10.88 -17.85 L0 -12.41 L0 5.44 L-10.88 0 Z" fill="rgb(209,209,209)" stroke="#000000" stroke-width="1" stroke-linejoin="round"/>
  <path d="M10.88 -17.85 L0 -12.41 L0 5.44 L10.88 0 Z" fill="rgb(158,158,158)" stroke="#000000" stroke-width="1" stroke-linejoin="round"/>
  <path d="M0 -23.29 L10.88 -17.85 L0 -12.41 L-10.88 -17.85 Z" fill="rgb(120,120,120)" stroke="#000000" stroke-width="1" stroke-linejoin="round"/>
  <path d="M-10.88 -10.71 L0 -5.27 L0 -3.49 L-10.88 -8.93 Z" fill="rgb(95,95,95)"/>
  <path d="M10.88 -10.71 L0 -5.27 L0 -3.49 L10.88 -8.93 Z" fill="rgb(60,60,60)"/>
  <path d="M-10.88 -6.43 L0 -0.99 L0 0.8 L-10.88 -4.64 Z" fill="rgb(95,95,95)"/>
  <path d="M10.88 -6.43 L0 -0.99 L0 0.8 L10.88 -4.64 Z" fill="rgb(60,60,60)"/>
  <path d="M-3.4 -20.4 L0 -18.7 L0 -16.15 L-3.4 -17.85 Z" fill="rgb(95,95,95)" stroke="#000000" stroke-width="1" stroke-linejoin="round"/>
  <path d="M3.4 -20.4 L0 -18.7 L0 -16.15 L3.4 -17.85 Z" fill="rgb(60,60,60)" stroke="#000000" stroke-width="1" stroke-linejoin="round"/>
  <path d="M0 -22.1 L3.4 -20.4 L0 -18.7 L-3.4 -20.4 Z" fill="rgb(95,95,95)" stroke="#000000" stroke-width="1" stroke-linejoin="round"/>
</svg>
