<svg viewBox="-8 -19.5 16 24" xmlns="http://www.w3.org/2000/svg">
  <!-- Bidón: iso monocromo neutro (el juego lo tiñe por sala). Borrador para refinar a mano.
       Anclaje centro-base. Generado por gen_assets.mjs. -->
  <ellipse cx="0" cy="0" rx="7.5" ry="3.7" fill="rgb(158,158,158)" stroke="#000000" stroke-width="1"/>
  <rect x="-7.5" y="-15.3" width="7.5" height="15.3" fill="rgb(209,209,209)"/>
  <rect x="0" y="-15.3" width="7.5" height="15.3" fill="rgb(158,158,158)"/>
  <path d="M-7.5 -15.3 L-7.5 0 M7.5 -15.3 L7.5 0" stroke="#000000" stroke-width="1" fill="none"/>
  <path d="M-7.5 -5.44 A7.5 3.7 0 0 0 7.5 -5.44" fill="none" stroke="rgb(60,60,60)" stroke-width="1.5"/>
  <path d="M-7.5 -10.54 A7.5 3.7 0 0 0 7.5 -10.54" fill="none" stroke="rgb(60,60,60)" stroke-width="1.5"/>
  <ellipse cx="0" cy="-15.3" rx="7.5" ry="3.7" fill="#ffffff" stroke="#000000" stroke-width="1"/>
  <path d="M-2.38 -17.68 L0 -16.49 L0 -14.11 L-2.38 -15.3 Z" fill="rgb(95,95,95)" stroke="#000000" stroke-width="1" stroke-linejoin="round"/>
  <path d="M2.38 -17.68 L0 -16.49 L0 -14.11 L2.38 -15.3 Z" fill="rgb(60,60,60)" stroke="#000000" stroke-width="1" stroke-linejoin="round"/>
  <path d="M0 -18.87 L2.38 -17.68 L0 -16.49 L-2.38 -17.68 Z" fill="rgb(95,95,95)" stroke="#000000" stroke-width="1" stroke-linejoin="round"/>
</svg>
