<svg viewBox="-17 -40 34 43" xmlns="http://www.w3.org/2000/svg">
  <!-- Silla de trabajo: iso monocromo neutro (el juego lo tiñe por sala). Borrador para refinar a mano.
       Anclaje centro-base. Generado por gen_assets.mjs. -->
  <path d="M-2.04 -37.74 L12.92 -30.26 L12.92 -15.98 L-2.04 -23.46 Z" fill="rgb(209,209,209)" stroke="#000000" stroke-width="1" stroke-linejoin="round"/>
  <path d="M15.64 -31.62 L12.92 -30.26 L12.92 -15.98 L15.64 -17.34 Z" fill="rgb(158,158,158)" stroke="#000000" stroke-width="1" stroke-linejoin="round"/>
  <path d="M0.68 -39.1 L15.64 -31.62 L12.92 -30.26 L-2.04 -37.74 Z" fill="rgb(120,120,120)" stroke="#000000" stroke-width="1" stroke-linejoin="round"/>
  <path d="M-4.76 -13.6 L0 -11.22 L0 2.38 L-4.76 0 Z" fill="rgb(95,95,95)" stroke="#000000" stroke-width="1" stroke-linejoin="round"/>
  <path d="M4.76 -13.6 L0 -11.22 L0 2.38 L4.76 0 Z" fill="rgb(60,60,60)" stroke="#000000" stroke-width="1" stroke-linejoin="round"/>
  <path d="M0 -15.98 L4.76 -13.6 L0 -11.22 L-4.76 -13.6 Z" fill="rgb(120,120,120)" stroke="#000000" stroke-width="1" stroke-linejoin="round"/>
  <path d="M-16.32 -17 L0 -8.84 L0 -5.44 L-16.32 -13.6 Z" fill="rgb(209,209,209)" stroke="#000000" stroke-width="1" stroke-linejoin="round"/>
  <path d="M16.32 -17 L0 -8.84 L0 -5.44 L16.32 -13.6 Z" fill="rgb(158,158,158)" stroke="#000000" stroke-width="1" stroke-linejoin="round"/>
  <path d="M0 -25.16 L16.32 -17 L0 -8.84 L-16.32 -17 Z" fill="#ffffff" stroke="#000000" stroke-width="1" stroke-linejoin="round"/>
</svg>
