<svg viewBox="-16 -34 32 42.5" xmlns="http://www.w3.org/2000/svg">
  <!-- Ordenador: iso monocromo neutro (el juego lo tiñe por sala). Borrador para refinar a mano.
       Anclaje centro-base. Generado por gen_assets.mjs. -->
  <path d="M-15.3 -25.5 L0 -17.85 L0 7.65 L-15.3 0 Z" fill="rgb(209,209,209)" stroke="#000000" stroke-width="1" stroke-linejoin="round"/>
  <path d="M15.3 -25.5 L0 -17.85 L0 7.65 L15.3 0 Z" fill="rgb(158,158,158)" stroke="#000000" stroke-width="1" stroke-linejoin="round"/>
  <path d="M0 -33.15 L15.3 -25.5 L0 -17.85 L-15.3 -25.5 Z" fill="#ffffff" stroke="#000000" stroke-width="1" stroke-linejoin="round"/>
  <path d="M-12.55 -21.57 L-2.75 -16.68 L-2.75 -14.89 L-12.55 -19.79 Z" fill="rgb(60,60,60)" stroke="#000000" stroke-width="0.5" stroke-linejoin="round"/>
  <path d="M-12.55 -18.51 L-2.75 -13.62 L-2.75 -11.83 L-12.55 -16.73 Z" fill="rgb(60,60,60)" stroke="#000000" stroke-width="0.5" stroke-linejoin="round"/>
  <path d="M-6.12 -8.67 L-3.98 -7.6 L-3.98 -4.54 L-6.12 -5.61 Z" fill="rgb(60,60,60)" stroke="#000000" stroke-width="0.5" stroke-linejoin="round"/>
  <path d="M-11.63 -10.91 L-10.4 -10.3 L-10.4 -8.26 L-11.63 -8.87 Z" fill="#ffffff" stroke="#000000" stroke-width="0.4" stroke-linejoin="round"/>
  <path d="M-9.49 -10.35 L-8.26 -9.74 L-8.26 -7.7 L-9.49 -8.31 Z" fill="#ffffff" stroke="#000000" stroke-width="0.4" stroke-linejoin="round"/>
  <path d="M11.02 -17.24 L4.28 -13.87 L4.28 -12.34 L11.02 -15.71 Z" fill="rgb(95,95,95)" stroke="#000000" stroke-width="0.5" stroke-linejoin="round"/>
  <path d="M11.02 -13.16 L4.28 -9.79 L4.28 -8.26 L11.02 -11.63 Z" fill="rgb(95,95,95)" stroke="#000000" stroke-width="0.5" stroke-linejoin="round"/>
  <path d="M11.02 -9.08 L4.28 -5.71 L4.28 -4.18 L11.02 -7.55 Z" fill="rgb(95,95,95)" stroke="#000000" stroke-width="0.5" stroke-linejoin="round"/>
</svg>
