<svg viewBox="-19.5 -37.5 39 47.5" xmlns="http://www.w3.org/2000/svg">
  <!-- Consola de control: iso monocromo neutro (el juego lo tiñe por sala). Borrador para refinar a mano.
       Anclaje centro-base. Generado por gen_assets.mjs. -->
  <path d="M-18.7 -18.19 L5.1 -6.29 L5.1 9.35 L-18.7 -2.55 Z" fill="rgb(209,209,209)" stroke="#000000" stroke-width="1" stroke-linejoin="round"/>
  <path d="M18.7 -13.09 L5.1 -6.29 L5.1 9.35 L18.7 2.55 Z" fill="rgb(158,158,158)" stroke="#000000" stroke-width="1" stroke-linejoin="round"/>
  <path d="M-5.1 -24.99 L18.7 -13.09 L5.1 -6.29 L-18.7 -18.19 Z" fill="rgb(120,120,120)" stroke="#000000" stroke-width="1" stroke-linejoin="round"/>
  <path d="M-7.48 -35.02 L14.28 -24.14 L14.28 -11.9 L-7.48 -22.78 Z" fill="rgb(209,209,209)" stroke="#000000" stroke-width="1" stroke-linejoin="round"/>
  <path d="M17.68 -25.84 L14.28 -24.14 L14.28 -11.9 L17.68 -13.6 Z" fill="rgb(158,158,158)" stroke="#000000" stroke-width="1" stroke-linejoin="round"/>
  <path d="M-4.08 -36.72 L17.68 -25.84 L14.28 -24.14 L-7.48 -35.02 Z" fill="#ffffff" stroke="#000000" stroke-width="1" stroke-linejoin="round"/>
  <path d="M-4.87 -32.25 L11.67 -23.98 L11.67 -15.41 L-4.87 -23.68 Z" fill="rgb(40,40,40)" stroke="#000000" stroke-width="0.5" stroke-linejoin="round"/>
  <ellipse cx="-9.52" cy="-17" rx="3.2" ry="1.8" fill="#ffffff" stroke="#000000" stroke-width="0.4"/>
  <ellipse cx="-5.44" cy="-14.28" rx="3.2" ry="1.8" fill="rgb(60,60,60)" stroke="#000000" stroke-width="0.4"/>
</svg>
