<svg viewBox="-16.5 -24 33 32.5" xmlns="http://www.w3.org/2000/svg">
  <!-- Contenedor: iso monocromo neutro (el juego lo tiñe por sala). Borrador para refinar a mano.
       Anclaje centro-base. Generado por gen_assets.mjs. -->
  <path d="M-15.64 -15.64 L0 -7.82 L0 7.82 L-15.64 0 Z" fill="rgb(209,209,209)" stroke="#000000" stroke-width="1" stroke-linejoin="round"/>
  <path d="M15.64 -15.64 L0 -7.82 L0 7.82 L15.64 0 Z" fill="rgb(158,158,158)" stroke="#000000" stroke-width="1" stroke-linejoin="round"/>
  <path d="M0 -23.46 L15.64 -15.64 L0 -7.82 L-15.64 -15.64 Z" fill="rgb(120,120,120)" stroke="#000000" stroke-width="1" stroke-linejoin="round"/>
  <path d="M-14.08 -13.29 L-1.56 -7.04 L-1.56 5.47 L-14.08 -0.78 Z" fill="rgb(150,150,150)" stroke="#000000" stroke-width="0.5" stroke-linejoin="round"/>
  <path d="M14.08 -13.29 L1.56 -7.04 L1.56 5.47 L14.08 -0.78 Z" fill="rgb(120,120,120)" stroke="#000000" stroke-width="0.5" stroke-linejoin="round"/>
  <ellipse cx="-7.82" cy="-4.59" rx="5.2" ry="5.2" fill="#ffffff" stroke="#000000" stroke-width="0.6"/>
  <path d="M-7.82 -4.59 L-10.26 -9.18 L-5.38 -9.18 Z" fill="rgb(40,40,40)"/>
  <path d="M-7.82 -4.59 L-2.62 -4.41 L-5.06 -0.18 Z" fill="rgb(40,40,40)"/>
  <path d="M-7.82 -4.59 L-10.58 -0.18 L-13.02 -4.41 Z" fill="rgb(40,40,40)"/>
  <circle cx="-7.82" cy="-4.59" r="1.5" fill="rgb(40,40,40)"/>
</svg>
