<svg viewBox="-9 -26 18 30" xmlns="http://www.w3.org/2000/svg">
  <!-- Lámpara de mesa: iso monocromo neutro (el juego lo tiñe por sala). Borrador para refinar a mano.
       Anclaje centro-base. Generado por gen_assets.mjs. -->
  <path d="M-6.12 -2.38 L0.68 1.02 L0.68 3.06 L-6.12 -0.34 Z" fill="rgb(95,95,95)" stroke="#000000" stroke-width="1" stroke-linejoin="round"/>
  <path d="M6.12 -1.7 L0.68 1.02 L0.68 3.06 L6.12 0.34 Z" fill="rgb(60,60,60)" stroke="#000000" stroke-width="1" stroke-linejoin="round"/>
  <path d="M-0.68 -5.1 L6.12 -1.7 L0.68 1.02 L-6.12 -2.38 Z" fill="rgb(120,120,120)" stroke="#000000" stroke-width="1" stroke-linejoin="round"/>
  <path d="M-2.04 -17 L0 -15.98 L0 -1.02 L-2.04 -2.04 Z" fill="rgb(95,95,95)" stroke="#000000" stroke-width="1" stroke-linejoin="round"/>
  <path d="M2.04 -17 L0 -15.98 L0 -1.02 L2.04 -2.04 Z" fill="rgb(60,60,60)" stroke="#000000" stroke-width="1" stroke-linejoin="round"/>
  <path d="M0 -18.02 L2.04 -17 L0 -15.98 L-2.04 -17 Z" fill="rgb(95,95,95)" stroke="#000000" stroke-width="1" stroke-linejoin="round"/>
  <path d="M-8.16 -21.76 L1.36 -17 L1.36 -12.92 L-8.16 -17.68 Z" fill="rgb(209,209,209)" stroke="#000000" stroke-width="1" stroke-linejoin="round"/>
  <path d="M8.16 -20.4 L1.36 -17 L1.36 -12.92 L8.16 -16.32 Z" fill="rgb(158,158,158)" stroke="#000000" stroke-width="1" stroke-linejoin="round"/>
  <path d="M-1.36 -25.16 L8.16 -20.4 L1.36 -17 L-8.16 -21.76 Z" fill="#ffffff" stroke="#000000" stroke-width="1" stroke-linejoin="round"/>
  <ellipse cx="-1.7" cy="-16.15" rx="5.2" ry="2.6" fill="#ffffff" stroke="#000000" stroke-width="0.4"/>
</svg>
