<svg viewBox="-11 -20.5 22 26.5" xmlns="http://www.w3.org/2000/svg">
  <!-- Lámpara de mesa: iso monocromo neutro (el juego lo tiñe por sala). Borrador para refinar a mano.
       Anclaje centro-base. Generado por gen_assets.mjs. -->
  <path d="M-10.2 -1.7 L1.36 4.08 L1.36 5.1 L-10.2 -0.68 Z" fill="rgb(95,95,95)" stroke="#000000" stroke-width="1" stroke-linejoin="round"/>
  <path d="M10.2 -0.34 L1.36 4.08 L1.36 5.1 L10.2 0.68 Z" fill="rgb(60,60,60)" stroke="#000000" stroke-width="1" stroke-linejoin="round"/>
  <path d="M-1.36 -6.12 L10.2 -0.34 L1.36 4.08 L-10.2 -1.7 Z" fill="rgb(120,120,120)" stroke="#000000" stroke-width="1" stroke-linejoin="round"/>
  <path d="M-1.02 -11.56 L0 -11.05 L0 -0.51 L-1.02 -1.02 Z" fill="rgb(95,95,95)" stroke="#000000" stroke-width="1" stroke-linejoin="round"/>
  <path d="M1.02 -11.56 L0 -11.05 L0 -0.51 L1.02 -1.02 Z" fill="rgb(60,60,60)" stroke="#000000" stroke-width="1" stroke-linejoin="round"/>
  <path d="M0 -12.07 L1.02 -11.56 L0 -11.05 L-1.02 -11.56 Z" fill="rgb(95,95,95)" stroke="#000000" stroke-width="1" stroke-linejoin="round"/>
  <path d="M-8.16 -16.32 L1.36 -11.56 L1.36 -7.48 L-8.16 -12.24 Z" fill="rgb(209,209,209)" stroke="#000000" stroke-width="1" stroke-linejoin="round"/>
  <path d="M8.16 -14.96 L1.36 -11.56 L1.36 -7.48 L8.16 -10.88 Z" fill="rgb(158,158,158)" stroke="#000000" stroke-width="1" stroke-linejoin="round"/>
  <path d="M-1.36 -19.72 L8.16 -14.96 L1.36 -11.56 L-8.16 -16.32 Z" fill="#ffffff" stroke="#000000" stroke-width="1" stroke-linejoin="round"/>
  <ellipse cx="-1.7" cy="-10.71" rx="5.2" ry="2.6" fill="#ffffff" stroke="#000000" stroke-width="0.4"/>
</svg>
