<svg viewBox="-6 -51 40 71" xmlns="http://www.w3.org/2000/svg">
  <polygon points="0 -51 6.8 -47.6 1.02 -44.71 -5.78 -48.11" fill="#ffffff" stroke="#000000" stroke-width="1" stroke-linejoin="round"/>
  <polygon points="6.8 -47.6 1.02 -44.71 1.02 6.29 6.8 3.4" fill="rgb(158,158,158)" stroke="#000000" stroke-width="1" stroke-linejoin="round"/>
  <polygon points="-5.78 -48.11 1.02 -44.71 1.02 6.29 -5.78 2.89" fill="rgb(209,209,209)" stroke="#000000" stroke-width="1" stroke-linejoin="round"/>
  <polyline points="6.8 -10.37 1.02 -7.48 -5.78 -10.88" fill="none" stroke="rgb(255,255,255)" stroke-width="1" stroke-linejoin="round" stroke-linecap="round"/>
  <polyline points="6.8 -9.86 1.02 -6.97 -5.78 -10.37" fill="none" stroke="#000000" stroke-width="1" stroke-linejoin="round" stroke-linecap="round"/>
  <polyline points="6.8 -22.61 1.02 -19.72 -5.78 -23.12" fill="none" stroke="rgb(255,255,255)" stroke-width="1" stroke-linejoin="round" stroke-linecap="round"/>
  <polyline points="6.8 -22.1 1.02 -19.21 -5.78 -22.61" fill="none" stroke="#000000" stroke-width="1" stroke-linejoin="round" stroke-linecap="round"/>
  <polyline points="6.8 -34.85 1.02 -31.96 -5.78 -35.36" fill="none" stroke="rgb(255,255,255)" stroke-width="1" stroke-linejoin="round" stroke-linecap="round"/>
  <polyline points="6.8 -34.34 1.02 -31.45 -5.78 -34.85" fill="none" stroke="#000000" stroke-width="1" stroke-linejoin="round" stroke-linecap="round"/>
  <polygon points="27.2 -37.4 34 -34 28.22 -31.11 21.42 -34.51" fill="#ffffff" stroke="#000000" stroke-width="1" stroke-linejoin="round"/>
  <polygon points="34 -34 28.22 -31.11 28.22 19.89 34 17" fill="rgb(158,158,158)" stroke="#000000" stroke-width="1" stroke-linejoin="round"/>
  <polygon points="21.42 -34.51 28.22 -31.11 28.22 19.89 21.42 16.49" fill="rgb(209,209,209)" stroke="#000000" stroke-width="1" stroke-linejoin="round"/>
  <polyline points="34 3.23 28.22 6.12 21.42 2.72" fill="none" stroke="rgb(255,255,255)" stroke-width="1" stroke-linejoin="round" stroke-linecap="round"/>
  <polyline points="34 3.74 28.22 6.63 21.42 3.23" fill="none" stroke="#000000" stroke-width="1" stroke-linejoin="round" stroke-linecap="round"/>
  <polyline points="34 -9.01 28.22 -6.12 21.42 -9.52" fill="none" stroke="rgb(255,255,255)" stroke-width="1" stroke-linejoin="round" stroke-linecap="round"/>
  <polyline points="34 -8.5 28.22 -5.61 21.42 -9.01" fill="none" stroke="#000000" stroke-width="1" stroke-linejoin="round" stroke-linecap="round"/>
  <polyline points="34 -21.25 28.22 -18.36 21.42 -21.76" fill="none" stroke="rgb(255,255,255)" stroke-width="1" stroke-linejoin="round" stroke-linecap="round"/>
  <polyline points="34 -20.74 28.22 -17.85 21.42 -21.25" fill="none" stroke="#000000" stroke-width="1" stroke-linejoin="round" stroke-linecap="round"/>
  <polygon points="0 -51 34 -34 28.22 -31.11 -5.78 -48.11" fill="#ffffff" stroke="#000000" stroke-width="1" stroke-linejoin="round"/>
  <polygon points="34 -34 28.22 -31.11 28.22 -23.29 34 -26.18" fill="rgb(158,158,158)" stroke="#000000" stroke-width="1" stroke-linejoin="round"/>
  <polygon points="-5.78 -48.11 28.22 -31.11 28.22 -23.29 -5.78 -40.29" fill="rgb(209,209,209)" stroke="#000000" stroke-width="1" stroke-linejoin="round"/>
  <polyline points="34 -28.39 28.22 -25.5 -5.78 -42.5" fill="none" stroke="rgb(255,255,255)" stroke-width="1" stroke-linejoin="round" stroke-linecap="round"/>
  <polyline points="34 -27.88 28.22 -24.99 -5.78 -41.99" fill="none" stroke="#000000" stroke-width="1" stroke-linejoin="round" stroke-linecap="round"/>
</svg>
