<svg viewBox="-23 -43 45 74" xmlns="http://www.w3.org/2000/svg">
  <path d="M-17 -42.5 L-10.2 -39.1 L-15.98 -36.21 L-22.78 -39.61 Z" fill="#ffffff" stroke="#000000" stroke-width="1" stroke-linejoin="round" stroke-linecap="round"/>
  <path d="M-10.2 -39.1 L-15.98 -36.21 L-15.98 14.79 L-10.2 11.9 Z" fill="rgb(158,158,158)" stroke="#000000" stroke-width="1" stroke-linejoin="round" stroke-linecap="round"/>
  <path d="M-22.78 -39.61 L-15.98 -36.21 L-15.98 14.79 L-22.78 11.39 Z" fill="rgb(209,209,209)" stroke="#000000" stroke-width="1" stroke-linejoin="round" stroke-linecap="round"/>
  <path d="M-10.2 -1.87 L-15.98 1.02 L-22.78 -2.38" fill="none" stroke="rgb(255,255,255)" stroke-width="1" stroke-linejoin="round" stroke-linecap="round"/>
  <path d="M-10.2 -1.36 L-15.98 1.53 L-22.78 -1.87" fill="none" stroke="#000000" stroke-width="1" stroke-linejoin="round" stroke-linecap="round"/>
  <path d="M-10.2 -14.11 L-15.98 -11.22 L-22.78 -14.62" fill="none" stroke="rgb(255,255,255)" stroke-width="1" stroke-linejoin="round" stroke-linecap="round"/>
  <path d="M-10.2 -13.6 L-15.98 -10.71 L-22.78 -14.11" fill="none" stroke="#000000" stroke-width="1" stroke-linejoin="round" stroke-linecap="round"/>
  <path d="M-10.2 -26.35 L-15.98 -23.46 L-22.78 -26.86" fill="none" stroke="rgb(255,255,255)" stroke-width="1" stroke-linejoin="round" stroke-linecap="round"/>
  <path d="M-10.2 -25.84 L-15.98 -22.95 L-22.78 -26.35" fill="none" stroke="#000000" stroke-width="1" stroke-linejoin="round" stroke-linecap="round"/>
  <path d="M14.28 -26.86 L21.08 -23.46 L15.3 -20.57 L8.5 -23.97 Z" fill="#ffffff" stroke="#000000" stroke-width="1" stroke-linejoin="round" stroke-linecap="round"/>
  <path d="M21.08 -23.46 L15.3 -20.57 L15.3 30.43 L21.08 27.54 Z" fill="rgb(158,158,158)" stroke="#000000" stroke-width="1" stroke-linejoin="round" stroke-linecap="round"/>
  <path d="M8.5 -23.97 L15.3 -20.57 L15.3 30.43 L8.5 27.03 Z" fill="rgb(209,209,209)" stroke="#000000" stroke-width="1" stroke-linejoin="round" stroke-linecap="round"/>
  <path d="M21.08 13.77 L15.3 16.66 L8.5 13.26" fill="none" stroke="rgb(255,255,255)" stroke-width="1" stroke-linejoin="round" stroke-linecap="round"/>
  <path d="M21.08 14.28 L15.3 17.17 L8.5 13.77" fill="none" stroke="#000000" stroke-width="1" stroke-linejoin="round" stroke-linecap="round"/>
  <path d="M21.08 1.53 L15.3 4.42 L8.5 1.02" fill="none" stroke="rgb(255,255,255)" stroke-width="1" stroke-linejoin="round" stroke-linecap="round"/>
  <path d="M21.08 2.04 L15.3 4.93 L8.5 1.53" fill="none" stroke="#000000" stroke-width="1" stroke-linejoin="round" stroke-linecap="round"/>
  <path d="M21.08 -10.71 L15.3 -7.82 L8.5 -11.22" fill="none" stroke="rgb(255,255,255)" stroke-width="1" stroke-linejoin="round" stroke-linecap="round"/>
  <path d="M21.08 -10.2 L15.3 -7.31 L8.5 -10.71" fill="none" stroke="#000000" stroke-width="1" stroke-linejoin="round" stroke-linecap="round"/>
  <path d="M-17 -42.5 L21.08 -23.46 L15.3 -20.57 L-22.78 -39.61 Z" fill="#ffffff" stroke="#000000" stroke-width="1" stroke-linejoin="round" stroke-linecap="round"/>
  <path d="M21.08 -23.46 L15.3 -20.57 L15.3 -12.75 L21.08 -15.64 Z" fill="rgb(158,158,158)" stroke="#000000" stroke-width="1" stroke-linejoin="round" stroke-linecap="round"/>
  <path d="M-22.78 -39.61 L15.3 -20.57 L15.3 -12.75 L-22.78 -31.79 Z" fill="rgb(209,209,209)" stroke="#000000" stroke-width="1" stroke-linejoin="round" stroke-linecap="round"/>
  <path d="M21.08 -17.85 L15.3 -14.96 L-22.78 -34" fill="none" stroke="rgb(255,255,255)" stroke-width="1" stroke-linejoin="round" stroke-linecap="round"/>
  <path d="M21.08 -17.34 L15.3 -14.45 L-22.78 -33.49" fill="none" stroke="#000000" stroke-width="1" stroke-linejoin="round" stroke-linecap="round"/>
</svg>
