<svg viewBox="0 -54 44 74" xmlns="http://www.w3.org/2000/svg">
  <path d="M5.78 -53.89 L12.58 -50.49 L6.8 -47.6 L0 -51 Z" fill="#ffffff" stroke="#000000" stroke-width="1" stroke-linejoin="round" stroke-linecap="round"/>
  <path d="M12.58 -50.49 L6.8 -47.6 L6.8 3.4 L12.58 0.51 Z" fill="rgb(158,158,158)" stroke="#000000" stroke-width="1" stroke-linejoin="round" stroke-linecap="round"/>
  <path d="M0 -51 L6.8 -47.6 L6.8 3.4 L0 0 Z" fill="rgb(209,209,209)" stroke="#000000" stroke-width="1" stroke-linejoin="round" stroke-linecap="round"/>
  <path d="M12.58 -13.26 L6.8 -10.37 L0 -13.77" fill="none" stroke="rgb(255,255,255)" stroke-width="1" stroke-linejoin="round" stroke-linecap="round"/>
  <path d="M12.58 -12.75 L6.8 -9.86 L0 -13.26" fill="none" stroke="#000000" stroke-width="1" stroke-linejoin="round" stroke-linecap="round"/>
  <path d="M12.58 -25.5 L6.8 -22.61 L0 -26.01" fill="none" stroke="rgb(255,255,255)" stroke-width="1" stroke-linejoin="round" stroke-linecap="round"/>
  <path d="M12.58 -24.99 L6.8 -22.1 L0 -25.5" fill="none" stroke="#000000" stroke-width="1" stroke-linejoin="round" stroke-linecap="round"/>
  <path d="M12.58 -37.74 L6.8 -34.85 L0 -38.25" fill="none" stroke="rgb(255,255,255)" stroke-width="1" stroke-linejoin="round" stroke-linecap="round"/>
  <path d="M12.58 -37.23 L6.8 -34.34 L0 -37.74" fill="none" stroke="#000000" stroke-width="1" stroke-linejoin="round" stroke-linecap="round"/>
  <path d="M37.06 -38.25 L43.86 -34.85 L38.08 -31.96 L31.28 -35.36 Z" fill="#ffffff" stroke="#000000" stroke-width="1" stroke-linejoin="round" stroke-linecap="round"/>
  <path d="M43.86 -34.85 L38.08 -31.96 L38.08 19.04 L43.86 16.15 Z" fill="rgb(158,158,158)" stroke="#000000" stroke-width="1" stroke-linejoin="round" stroke-linecap="round"/>
  <path d="M31.28 -35.36 L38.08 -31.96 L38.08 19.04 L31.28 15.64 Z" fill="rgb(209,209,209)" stroke="#000000" stroke-width="1" stroke-linejoin="round" stroke-linecap="round"/>
  <path d="M43.86 2.38 L38.08 5.27 L31.28 1.87" fill="none" stroke="rgb(255,255,255)" stroke-width="1" stroke-linejoin="round" stroke-linecap="round"/>
  <path d="M43.86 2.89 L38.08 5.78 L31.28 2.38" fill="none" stroke="#000000" stroke-width="1" stroke-linejoin="round" stroke-linecap="round"/>
  <path d="M43.86 -9.86 L38.08 -6.97 L31.28 -10.37" fill="none" stroke="rgb(255,255,255)" stroke-width="1" stroke-linejoin="round" stroke-linecap="round"/>
  <path d="M43.86 -9.35 L38.08 -6.46 L31.28 -9.86" fill="none" stroke="#000000" stroke-width="1" stroke-linejoin="round" stroke-linecap="round"/>
  <path d="M43.86 -22.1 L38.08 -19.21 L31.28 -22.61" fill="none" stroke="rgb(255,255,255)" stroke-width="1" stroke-linejoin="round" stroke-linecap="round"/>
  <path d="M43.86 -21.59 L38.08 -18.7 L31.28 -22.1" fill="none" stroke="#000000" stroke-width="1" stroke-linejoin="round" stroke-linecap="round"/>
  <path d="M5.78 -53.89 L43.86 -34.85 L38.08 -31.96 L0 -51 Z" fill="#ffffff" stroke="#000000" stroke-width="1" stroke-linejoin="round" stroke-linecap="round"/>
  <path d="M43.86 -34.85 L38.08 -31.96 L38.08 -24.14 L43.86 -27.03 Z" fill="rgb(158,158,158)" stroke="#000000" stroke-width="1" stroke-linejoin="round" stroke-linecap="round"/>
  <path d="M0 -51 L38.08 -31.96 L38.08 -24.14 L0 -43.18 Z" fill="rgb(209,209,209)" stroke="#000000" stroke-width="1" stroke-linejoin="round" stroke-linecap="round"/>
  <path d="M43.86 -29.24 L38.08 -26.35 L0 -45.39" fill="none" stroke="rgb(255,255,255)" stroke-width="1" stroke-linejoin="round" stroke-linecap="round"/>
  <path d="M43.86 -28.73 L38.08 -25.84 L0 -44.88" fill="none" stroke="#000000" stroke-width="1" stroke-linejoin="round" stroke-linecap="round"/>
</svg>
