<svg viewBox="0 -54 40 71" xmlns="http://www.w3.org/2000/svg">
  <polygon points="5.78 -53.89 12.58 -50.49 6.8 -47.6 0 -51" fill="#ffffff" stroke="#000000" stroke-width="1" stroke-linejoin="round"/>
  <polygon points="12.58 -50.49 6.8 -47.6 6.8 3.4 12.58 0.51" fill="rgb(158,158,158)" stroke="#000000" stroke-width="1" stroke-linejoin="round"/>
  <polygon points="0 -51 6.8 -47.6 6.8 3.4 0 0" fill="rgb(209,209,209)" stroke="#000000" stroke-width="1" stroke-linejoin="round"/>
  <polyline points="12.58 -13.26 6.8 -10.37 0 -13.77" fill="none" stroke="rgb(255,255,255)" stroke-width="1" stroke-linejoin="round" stroke-linecap="round"/>
  <polyline points="12.58 -12.75 6.8 -9.86 0 -13.26" fill="none" stroke="#000000" stroke-width="1" stroke-linejoin="round" stroke-linecap="round"/>
  <polyline points="12.58 -25.5 6.8 -22.61 0 -26.01" fill="none" stroke="rgb(255,255,255)" stroke-width="1" stroke-linejoin="round" stroke-linecap="round"/>
  <polyline points="12.58 -24.99 6.8 -22.1 0 -25.5" fill="none" stroke="#000000" stroke-width="1" stroke-linejoin="round" stroke-linecap="round"/>
  <polyline points="12.58 -37.74 6.8 -34.85 0 -38.25" fill="none" stroke="rgb(255,255,255)" stroke-width="1" stroke-linejoin="round" stroke-linecap="round"/>
  <polyline points="12.58 -37.23 6.8 -34.34 0 -37.74" fill="none" stroke="#000000" stroke-width="1" stroke-linejoin="round" stroke-linecap="round"/>
  <polygon points="32.98 -40.29 39.78 -36.89 34 -34 27.2 -37.4" fill="#ffffff" stroke="#000000" stroke-width="1" stroke-linejoin="round"/>
  <polygon points="39.78 -36.89 34 -34 34 17 39.78 14.11" fill="rgb(158,158,158)" stroke="#000000" stroke-width="1" stroke-linejoin="round"/>
  <polygon points="27.2 -37.4 34 -34 34 17 27.2 13.6" fill="rgb(209,209,209)" stroke="#000000" stroke-width="1" stroke-linejoin="round"/>
  <polyline points="39.78 0.34 34 3.23 27.2 -0.17" fill="none" stroke="rgb(255,255,255)" stroke-width="1" stroke-linejoin="round" stroke-linecap="round"/>
  <polyline points="39.78 0.85 34 3.74 27.2 0.34" fill="none" stroke="#000000" stroke-width="1" stroke-linejoin="round" stroke-linecap="round"/>
  <polyline points="39.78 -11.9 34 -9.01 27.2 -12.41" fill="none" stroke="rgb(255,255,255)" stroke-width="1" stroke-linejoin="round" stroke-linecap="round"/>
  <polyline points="39.78 -11.39 34 -8.5 27.2 -11.9" fill="none" stroke="#000000" stroke-width="1" stroke-linejoin="round" stroke-linecap="round"/>
  <polyline points="39.78 -24.14 34 -21.25 27.2 -24.65" fill="none" stroke="rgb(255,255,255)" stroke-width="1" stroke-linejoin="round" stroke-linecap="round"/>
  <polyline points="39.78 -23.63 34 -20.74 27.2 -24.14" fill="none" stroke="#000000" stroke-width="1" stroke-linejoin="round" stroke-linecap="round"/>
  <polygon points="5.78 -53.89 39.78 -36.89 34 -34 0 -51" fill="#ffffff" stroke="#000000" stroke-width="1" stroke-linejoin="round"/>
  <polygon points="39.78 -36.89 34 -34 34 -26.18 39.78 -29.07" fill="rgb(158,158,158)" stroke="#000000" stroke-width="1" stroke-linejoin="round"/>
  <polygon points="0 -51 34 -34 34 -26.18 0 -43.18" fill="rgb(209,209,209)" stroke="#000000" stroke-width="1" stroke-linejoin="round"/>
  <polyline points="39.78 -31.28 34 -28.39 0 -45.39" fill="none" stroke="rgb(255,255,255)" stroke-width="1" stroke-linejoin="round" stroke-linecap="round"/>
  <polyline points="39.78 -30.77 34 -27.88 0 -44.88" fill="none" stroke="#000000" stroke-width="1" stroke-linejoin="round" stroke-linecap="round"/>
</svg>
