<svg viewBox="-24.5 -36.5 49 48.5" xmlns="http://www.w3.org/2000/svg">
  <!-- Cocina: iso monocromo neutro (el juego lo tiñe por sala). Borrador para refinar a mano.
       Anclaje centro-base. Generado por gen_assets.mjs. -->
  <path d="M-22.44 -23.46 L4.76 -9.86 L4.76 11.22 L-22.44 -2.38 Z" fill="rgb(209,209,209)" stroke="#000000" stroke-width="1" stroke-linejoin="round"/>
  <path d="M22.44 -18.7 L4.76 -9.86 L4.76 11.22 L22.44 2.38 Z" fill="rgb(158,158,158)" stroke="#000000" stroke-width="1" stroke-linejoin="round"/>
  <path d="M-4.76 -32.3 L22.44 -18.7 L4.76 -9.86 L-22.44 -23.46 Z" fill="rgb(120,120,120)" stroke="#000000" stroke-width="1" stroke-linejoin="round"/>
  <path d="M-19.18 -18.03 L-9.93 -13.41 L-9.93 0.92 L-19.18 -3.7 Z" fill="rgb(95,95,95)" stroke="#000000" stroke-width="0.5" stroke-linejoin="round"/>
  <path d="M-7.75 -12.32 L1.5 -7.7 L1.5 6.64 L-7.75 2.01 Z" fill="rgb(95,95,95)" stroke="#000000" stroke-width="0.5" stroke-linejoin="round"/>
  <path d="M-23.8 -26.18 L4.76 -11.9 L4.76 -9.18 L-23.8 -23.46 Z" fill="rgb(209,209,209)" stroke="#000000" stroke-width="1" stroke-linejoin="round"/>
  <path d="M23.8 -21.42 L4.76 -11.9 L4.76 -9.18 L23.8 -18.7 Z" fill="rgb(158,158,158)" stroke="#000000" stroke-width="1" stroke-linejoin="round"/>
  <path d="M-4.76 -35.7 L23.8 -21.42 L4.76 -11.9 L-23.8 -26.18 Z" fill="#ffffff" stroke="#000000" stroke-width="1" stroke-linejoin="round"/>
  <ellipse cx="-3.4" cy="-26.86" rx="6.8" ry="3.4" fill="rgb(60,60,60)" stroke="#000000" stroke-width="0.6"/>
  <ellipse cx="2.04" cy="-20.74" rx="6.8" ry="3.4" fill="rgb(60,60,60)" stroke="#000000" stroke-width="0.6"/>
</svg>
