<svg viewBox="-11 -21.5 22 24.5" xmlns="http://www.w3.org/2000/svg">
  <!-- Planta: iso monocromo neutro (el juego lo tiñe por sala). Borrador para refinar a mano.
       Anclaje centro-base. Generado por gen_assets.mjs. -->
  <path d="M-4.08 -3.4 L0 -1.36 L0 2.04 L-4.08 0 Z" fill="rgb(120,120,120)" stroke="#000000" stroke-width="1" stroke-linejoin="round"/>
  <path d="M4.08 -3.4 L0 -1.36 L0 2.04 L4.08 0 Z" fill="rgb(95,95,95)" stroke="#000000" stroke-width="1" stroke-linejoin="round"/>
  <path d="M0 -5.44 L4.08 -3.4 L0 -1.36 L-4.08 -3.4 Z" fill="rgb(95,95,95)" stroke="#000000" stroke-width="1" stroke-linejoin="round"/>
  <path d="M-5.1 -4.42 L0 -1.87 L0 -0.85 L-5.1 -3.4 Z" fill="rgb(120,120,120)" stroke="#000000" stroke-width="1" stroke-linejoin="round"/>
  <path d="M5.1 -4.42 L0 -1.87 L0 -0.85 L5.1 -3.4 Z" fill="rgb(95,95,95)" stroke="#000000" stroke-width="1" stroke-linejoin="round"/>
  <path d="M0 -6.97 L5.1 -4.42 L0 -1.87 L-5.1 -4.42 Z" fill="rgb(120,120,120)" stroke="#000000" stroke-width="1" stroke-linejoin="round"/>
  <ellipse cx="0" cy="-9.92" rx="2.6" ry="5.5" fill="rgb(158,158,158)" stroke="#000000" stroke-width="0.6" transform="rotate(-52 0 -4.42)"/>
  <ellipse cx="0" cy="-9.92" rx="2.6" ry="5.5" fill="rgb(158,158,158)" stroke="#000000" stroke-width="0.6" transform="rotate(52 0 -4.42)"/>
  <ellipse cx="0" cy="-11.42" rx="2.8" ry="7" fill="rgb(209,209,209)" stroke="#000000" stroke-width="0.6" transform="rotate(-28 0 -4.42)"/>
  <ellipse cx="0" cy="-11.42" rx="2.8" ry="7" fill="rgb(209,209,209)" stroke="#000000" stroke-width="0.6" transform="rotate(28 0 -4.42)"/>
  <ellipse cx="0" cy="-12.42" rx="2.8" ry="8" fill="rgb(225,225,225)" stroke="#000000" stroke-width="0.6" transform="rotate(-10 0 -4.42)"/>
  <ellipse cx="0" cy="-12.42" rx="2.8" ry="8" fill="rgb(225,225,225)" stroke="#000000" stroke-width="0.6" transform="rotate(12 0 -4.42)"/>
</svg>
