<svg viewBox="-9 -15.5 18 18.5" xmlns="http://www.w3.org/2000/svg">
  <!-- Planta: iso monocromo neutro (el juego lo tiñe por sala). Borrador para refinar a mano.
       Anclaje centro-base. Generado por gen_assets.mjs. -->
  <path d="M-4.76 -3.74 L0 -1.36 L0 2.38 L-4.76 0 Z" fill="rgb(120,120,120)" stroke="#000000" stroke-width="1" stroke-linejoin="round"/>
  <path d="M4.76 -3.74 L0 -1.36 L0 2.38 L4.76 0 Z" fill="rgb(95,95,95)" stroke="#000000" stroke-width="1" stroke-linejoin="round"/>
  <path d="M0 -6.12 L4.76 -3.74 L0 -1.36 L-4.76 -3.74 Z" fill="rgb(95,95,95)" stroke="#000000" stroke-width="1" stroke-linejoin="round"/>
  <path d="M-5.78 -4.76 L0 -1.87 L0 -0.85 L-5.78 -3.74 Z" fill="rgb(120,120,120)" stroke="#000000" stroke-width="1" stroke-linejoin="round"/>
  <path d="M5.78 -4.76 L0 -1.87 L0 -0.85 L5.78 -3.74 Z" fill="rgb(95,95,95)" stroke="#000000" stroke-width="1" stroke-linejoin="round"/>
  <path d="M0 -7.65 L5.78 -4.76 L0 -1.87 L-5.78 -4.76 Z" fill="rgb(120,120,120)" stroke="#000000" stroke-width="1" stroke-linejoin="round"/>
  <ellipse cx="0" cy="-7.14" rx="8.5" ry="5" fill="rgb(209,209,209)" stroke="#000000" stroke-width="0.6"/>
  <ellipse cx="-1.02" cy="-9.69" rx="6" ry="4" fill="rgb(158,158,158)" stroke="#000000" stroke-width="0.6"/>
  <ellipse cx="1.02" cy="-7.31" rx="6" ry="4" fill="rgb(209,209,209)" stroke="#000000" stroke-width="0.6"/>
  <ellipse cx="-1.7" cy="-9.69" rx="5.5" ry="4" fill="rgb(225,225,225)" stroke="#000000" stroke-width="0.6"/>
  <ellipse cx="1.7" cy="-10.03" rx="5" ry="3.6" fill="rgb(158,158,158)" stroke="#000000" stroke-width="0.6"/>
  <ellipse cx="-0.34" cy="-11.39" rx="5" ry="3.6" fill="#ffffff" stroke="#000000" stroke-width="0.6"/>
</svg>
