<svg viewBox="0 -51 17 60" xmlns="http://www.w3.org/2000/svg">
  <defs><clipPath id="w"><polygon points="0,0 17,8.5 17,-42.5 0,-51"/></clipPath></defs>
  <g clip-path="url(#w)">
    <polygon points="0,0 17,8.5 17,-42.5 0,-51" fill="#000000"/>
    <g fill="#ffffff" stroke="#000000" stroke-width="1" stroke-linejoin="round">
      <polygon points="0,-51 8.5,-41.84 8.5,-32.03 0,-31.37 -8.5,-40.53 -8.5,-50.34"/>
      <polygon points="17,-42.5 25.5,-33.34 25.5,-23.53 17,-22.87 8.5,-32.03 8.5,-41.84"/>
      <polygon points="8.5,-32.03 17,-22.87 17,-13.06 8.5,-12.4 0,-21.56 0,-31.37"/>
      <polygon points="0,-21.56 8.5,-12.4 8.5,-2.58 0,-1.93 -8.5,-11.08 -8.5,-20.9"/>
      <polygon points="17,-13.06 25.5,-3.9 25.5,5.92 17,6.57 8.5,-2.58 8.5,-12.4"/>
      <polygon points="8.5,-2.58 17,6.57 17,16.39 8.5,17.05 0,7.89 0,-1.93"/>
    </g>
  </g>
</svg>
